<svg width="583" height="132" viewBox="0 0 583 132" fill="none" xmlns="http://www.w3.org/2000/svg">
<path d="M210 58.5312C211.547 58.5312 213.023 58.9531 214.359 59.7266C215.695 60.5 216.75 61.5547 217.523 62.8906C218.297 64.2266 218.719 65.7031 218.719 67.25C218.719 68.832 218.297 70.2734 217.523 71.6094C216.75 72.9453 215.695 74.0352 214.359 74.8086C213.023 75.582 211.547 75.9688 210 75.9688C208.418 75.9688 206.977 75.582 205.641 74.8086C204.305 74.0352 203.215 72.9453 202.441 71.6094C201.668 70.2734 201.281 68.832 201.281 67.25C201.281 65.7031 201.668 64.2266 202.441 62.8906C203.215 61.5547 204.305 60.5 205.641 59.7266C206.977 58.9531 208.418 58.5312 210 58.5312ZM215.766 62.5391C215.484 62.8906 215.133 63.2773 214.676 63.6641C213.762 64.4375 212.742 65.0352 211.617 65.4922C211.828 65.9844 212.039 66.4766 212.25 66.9688C213.305 66.8281 214.43 66.8281 215.695 66.9336C216.328 67.0039 216.926 67.1094 217.453 67.1797C217.418 66.3359 217.277 65.4922 216.996 64.7188C216.715 63.9453 216.293 63.207 215.766 62.5391ZM214.922 61.6953C214.008 60.8867 212.953 60.3242 211.793 60.043C210.598 59.7617 209.438 59.7266 208.242 60.0078C209.227 61.3438 210.176 62.8203 211.02 64.3672C212.145 63.9805 213.094 63.4531 213.938 62.75C214.359 62.3984 214.711 62.0469 214.922 61.6953ZM206.836 60.5352C205.781 61.0273 204.867 61.7305 204.164 62.6445C203.426 63.5586 202.934 64.6133 202.723 65.7383C203.355 65.7383 204.094 65.7031 204.973 65.6328C206.59 65.4922 208.102 65.2461 209.578 64.8242C208.734 63.3125 207.82 61.8711 206.836 60.5352ZM202.547 67.25C202.547 68.1992 202.688 69.1133 203.039 69.957C203.391 70.8008 203.848 71.5742 204.48 72.2422C205.113 71.1523 205.957 70.168 207.082 69.2539C208.277 68.2695 209.508 67.6016 210.809 67.25C210.633 66.8281 210.422 66.4062 210.211 65.9844C208.629 66.4766 206.941 66.793 205.113 66.9336C204.129 67.0039 203.25 67.0391 202.547 67.0391V67.25ZM205.43 73.1211C206.484 74 207.715 74.5273 209.051 74.668C210.387 74.8086 211.688 74.6328 212.918 74.1055C212.602 72.3125 212.074 70.4492 211.336 68.4805C209.895 68.9727 208.629 69.6758 207.539 70.5898C206.555 71.4336 205.852 72.2773 205.43 73.1211ZM214.148 73.4375C214.992 72.875 215.695 72.1719 216.258 71.293C216.82 70.4492 217.172 69.5 217.348 68.4453C216.926 68.3047 216.398 68.1992 215.801 68.1289C214.711 67.9883 213.691 67.9883 212.707 68.1289C213.375 70.0273 213.867 71.7852 214.148 73.4375Z" fill="#8392AB"/>
<path d="M262.137 63.5938C262.84 63.0664 263.473 62.4336 264 61.6602C263.297 61.9766 262.594 62.1875 261.891 62.2578C262.664 61.7656 263.227 61.0977 263.508 60.2188C262.77 60.6406 261.996 60.957 261.152 61.0977C260.801 60.7461 260.379 60.4648 259.922 60.2539C259.465 60.043 258.973 59.9375 258.445 59.9375C257.777 59.9375 257.18 60.1133 256.617 60.4297C256.055 60.7812 255.598 61.2383 255.281 61.8008C254.93 62.3633 254.789 62.9961 254.789 63.6289C254.789 63.9102 254.789 64.1914 254.859 64.4727C253.348 64.4023 251.941 64.0508 250.605 63.3477C249.27 62.6797 248.18 61.7656 247.266 60.6055C246.914 61.2031 246.738 61.8359 246.738 62.4688C246.738 63.1016 246.879 63.6992 247.195 64.2266C247.477 64.7891 247.898 65.2109 248.391 65.5625C247.793 65.5625 247.23 65.3867 246.738 65.0703V65.1406C246.738 66.0195 247.02 66.793 247.582 67.4609C248.145 68.1641 248.848 68.5859 249.691 68.7617C249.34 68.832 249.023 68.8672 248.707 68.8672C248.496 68.8672 248.25 68.8672 248.039 68.832C248.25 69.5703 248.672 70.168 249.305 70.6602C249.938 71.1523 250.641 71.3633 251.484 71.3633C250.113 72.418 248.566 72.9453 246.879 72.9453C246.527 72.9453 246.246 72.9453 246 72.9102C247.688 74.0352 249.586 74.5625 251.66 74.5625C253.805 74.5625 255.703 74.0352 257.391 72.9102C258.902 71.9258 260.098 70.625 260.941 68.9375C261.75 67.3906 262.172 65.7383 262.172 64.0508C262.172 63.8398 262.137 63.6992 262.137 63.5938Z" fill="#8392AB"/>
<path d="M298.875 63.207C299.578 63.207 300.246 63.418 300.879 63.7695C301.512 64.1211 302.004 64.6133 302.355 65.2461C302.707 65.8789 302.918 66.5469 302.918 67.25C302.918 67.9883 302.707 68.6562 302.355 69.2891C302.004 69.9219 301.512 70.4141 300.879 70.7656C300.246 71.1172 299.578 71.293 298.875 71.293C298.137 71.293 297.469 71.1172 296.836 70.7656C296.203 70.4141 295.711 69.9219 295.359 69.2891C295.008 68.6562 294.832 67.9883 294.832 67.25C294.832 66.5469 295.008 65.8789 295.359 65.2461C295.711 64.6133 296.203 64.1211 296.836 63.7695C297.469 63.418 298.137 63.207 298.875 63.207ZM298.875 69.8867C299.578 69.8867 300.211 69.6406 300.738 69.1133C301.23 68.6211 301.512 67.9883 301.512 67.25C301.512 66.5469 301.23 65.9141 300.738 65.3867C300.211 64.8945 299.578 64.6133 298.875 64.6133C298.137 64.6133 297.504 64.8945 297.012 65.3867C296.484 65.9141 296.238 66.5469 296.238 67.25C296.238 67.9883 296.484 68.6211 297.012 69.1133C297.504 69.6406 298.137 69.8867 298.875 69.8867ZM304.043 63.0312C304.043 62.7852 303.938 62.5742 303.762 62.3633C303.551 62.1875 303.34 62.082 303.094 62.082C302.812 62.082 302.602 62.1875 302.426 62.3633C302.215 62.5742 302.145 62.7852 302.145 63.0312C302.145 63.3125 302.215 63.5234 302.426 63.6992C302.602 63.9102 302.812 63.9805 303.094 63.9805C303.34 63.9805 303.551 63.9102 303.727 63.6992C303.902 63.5234 304.008 63.3125 304.043 63.0312ZM306.715 63.9805C306.715 64.6484 306.75 65.7383 306.75 67.25C306.75 68.7969 306.715 69.8867 306.68 70.5547C306.645 71.2227 306.539 71.7852 306.398 72.2773C306.188 72.875 305.836 73.4023 305.414 73.8242C304.992 74.2461 304.465 74.5625 303.902 74.7734C303.41 74.9492 302.812 75.0547 302.145 75.0898C301.477 75.125 300.387 75.125 298.875 75.125C297.328 75.125 296.238 75.125 295.57 75.0898C294.902 75.0547 294.34 74.9492 293.848 74.7383C293.25 74.5625 292.723 74.2461 292.301 73.8242C291.879 73.4023 291.562 72.875 291.352 72.2773C291.176 71.7852 291.07 71.2227 291.035 70.5547C291 69.8867 291 68.7969 291 67.25C291 65.7383 291 64.6484 291.035 63.9805C291.07 63.3125 291.176 62.7148 291.352 62.2227C291.562 61.6602 291.879 61.1328 292.301 60.7109C292.723 60.2891 293.25 59.9375 293.848 59.7266C294.34 59.5859 294.902 59.4805 295.57 59.4453C296.238 59.4102 297.328 59.375 298.875 59.375C300.387 59.375 301.477 59.4102 302.145 59.4453C302.812 59.4805 303.41 59.5859 303.902 59.7266C304.465 59.9375 304.992 60.2891 305.414 60.7109C305.836 61.1328 306.188 61.6602 306.398 62.2227C306.539 62.7148 306.645 63.3125 306.715 63.9805ZM305.027 71.8906C305.168 71.5039 305.238 70.8711 305.309 69.9922C305.309 69.5 305.344 68.7617 305.344 67.8125V66.6875C305.344 65.7383 305.309 65 305.309 64.5078C305.238 63.6289 305.168 62.9961 305.027 62.6094C304.746 61.9062 304.219 61.3789 303.516 61.0977C303.129 60.957 302.496 60.8867 301.617 60.8164C301.09 60.8164 300.352 60.7812 299.438 60.7812H298.312C297.363 60.7812 296.625 60.8164 296.133 60.8164C295.254 60.8867 294.621 60.957 294.234 61.0977C293.496 61.3789 293.004 61.9062 292.723 62.6094C292.582 62.9961 292.477 63.6289 292.441 64.5078C292.406 65.0352 292.406 65.7734 292.406 66.6875V67.8125C292.406 68.7617 292.406 69.5 292.441 69.9922C292.477 70.8711 292.582 71.5039 292.723 71.8906C293.004 72.6289 293.531 73.1211 294.234 73.4023C294.621 73.543 295.254 73.6484 296.133 73.6836C296.625 73.7188 297.363 73.7188 298.312 73.7188H299.438C300.387 73.7188 301.125 73.7188 301.617 73.6836C302.496 73.6484 303.129 73.543 303.516 73.4023C304.219 73.1211 304.746 72.5938 305.027 71.8906Z" fill="#8392AB"/>
<path d="M352.438 67.25C352.438 65.7031 352.016 64.2266 351.242 62.8906C350.469 61.5547 349.414 60.5 348.078 59.7266C346.742 58.9531 345.266 58.5312 343.719 58.5312C342.137 58.5312 340.695 58.9531 339.359 59.7266C338.023 60.5 336.934 61.5547 336.16 62.8906C335.387 64.2266 335 65.7031 335 67.25C335 69.0781 335.492 70.7305 336.512 72.207C337.531 73.6836 338.867 74.7383 340.555 75.3711C340.414 74.3164 340.449 73.4727 340.59 72.875L341.574 68.5508C341.398 68.1992 341.328 67.7773 341.328 67.25C341.328 66.6523 341.469 66.1602 341.785 65.7383C342.066 65.3516 342.453 65.1406 342.91 65.1406C343.262 65.1406 343.508 65.2812 343.719 65.4922C343.895 65.7031 344 65.9844 344 66.3359C344 66.6875 343.859 67.2852 343.613 68.1289C343.438 68.6211 343.332 69.0078 343.297 69.2539C343.191 69.6758 343.262 70.0625 343.543 70.3789C343.789 70.6953 344.141 70.8359 344.598 70.8359C345.371 70.8359 346.004 70.4844 346.531 69.7109C347.059 68.9727 347.34 68.0234 347.34 66.8281C347.34 65.8086 346.988 64.9648 346.32 64.2969C345.617 63.6289 344.738 63.2773 343.684 63.2773C342.875 63.2773 342.172 63.4883 341.574 63.8398C340.977 64.1914 340.52 64.6836 340.203 65.2461C339.887 65.8086 339.746 66.4414 339.746 67.0742C339.746 67.4609 339.781 67.8477 339.922 68.1992C340.027 68.5508 340.168 68.8672 340.379 69.0781C340.449 69.1484 340.449 69.2539 340.449 69.3242L340.203 70.3086C340.168 70.4492 340.062 70.4844 339.922 70.4141C339.395 70.2031 338.973 69.7461 338.621 69.0781C338.27 68.4102 338.129 67.7422 338.129 67.0391C338.129 66.125 338.34 65.2461 338.797 64.4375C339.254 63.6289 339.887 62.9961 340.73 62.5039C341.645 62.0117 342.699 61.7656 343.895 61.7656C344.879 61.7656 345.793 62.0117 346.637 62.4336C347.445 62.8555 348.078 63.4531 348.57 64.2266C349.027 65 349.273 65.8789 349.273 66.8633C349.273 67.8477 349.062 68.7266 348.676 69.5352C348.289 70.3789 347.762 71.0117 347.059 71.5039C346.355 71.9961 345.617 72.207 344.773 72.207C344.316 72.207 343.895 72.1367 343.543 71.9258C343.156 71.75 342.91 71.5039 342.77 71.2227L342.207 73.2969C342.066 73.8945 341.715 74.668 341.152 75.582C341.961 75.8633 342.805 75.9688 343.719 75.9688C345.266 75.9688 346.742 75.582 348.078 74.8086C349.414 74.0352 350.469 72.9453 351.242 71.6094C352.016 70.2734 352.438 68.832 352.438 67.25Z" fill="#8392AB"/>
<path d="M386.836 72.207C386.836 72.207 386.801 72.1719 386.766 72.1367C386.73 72.1367 386.695 72.1016 386.625 72.1016C386.484 72.1016 386.449 72.1719 386.449 72.2422C386.449 72.3477 386.484 72.3828 386.625 72.3828C386.766 72.3828 386.836 72.3125 386.836 72.207ZM385.746 72.0664C385.746 71.9961 385.816 71.9609 385.957 71.9961C386.062 72.0312 386.098 72.0664 386.098 72.1367C386.098 72.207 386.062 72.2422 386.027 72.2422C385.957 72.2773 385.922 72.2773 385.887 72.2422C385.816 72.2422 385.781 72.207 385.746 72.1719C385.711 72.1367 385.711 72.1016 385.746 72.0664ZM387.293 71.9961C387.398 71.9961 387.469 72.0312 387.469 72.1016C387.469 72.1719 387.434 72.2422 387.328 72.2773C387.258 72.2773 387.223 72.2773 387.188 72.2773C387.152 72.2773 387.117 72.207 387.117 72.1367C387.117 72.0664 387.152 72.0312 387.293 71.9961ZM389.613 58.5312C391.195 58.5312 392.672 58.918 394.043 59.6562C395.379 60.4297 396.469 61.4492 397.242 62.7148C398.016 64.0508 398.438 65.5273 398.438 67.1094C398.438 69.0781 397.875 70.8008 396.785 72.3477C395.695 73.8945 394.289 74.9492 392.531 75.5117C392.32 75.582 392.18 75.5469 392.074 75.4414C391.969 75.3711 391.934 75.2305 391.934 75.0898V72.1367C391.934 71.3984 391.723 70.8711 391.336 70.5195C392.18 70.4492 392.848 70.3086 393.27 70.168C393.902 69.957 394.43 69.6055 394.781 69.1133C395.168 68.5156 395.379 67.6719 395.379 66.6172C395.379 66.1953 395.273 65.8086 395.133 65.457C394.992 65.2461 394.781 64.9297 394.465 64.5781C394.535 64.3672 394.605 64.0859 394.641 63.7344C394.641 63.2422 394.57 62.7148 394.395 62.1875C394.148 62.1172 393.832 62.1875 393.41 62.3281C393.129 62.4688 392.777 62.6094 392.426 62.8203L391.969 63.1367C391.23 62.9258 390.492 62.8203 389.719 62.8203C388.945 62.8203 388.242 62.9258 387.539 63.1367L387.082 62.8203C386.695 62.6094 386.344 62.4688 386.062 62.3281C385.641 62.1875 385.324 62.1172 385.113 62.1875C384.902 62.7148 384.797 63.2422 384.867 63.7344C384.867 64.0859 384.902 64.332 385.008 64.543C384.727 64.8945 384.516 65.2461 384.375 65.5273C384.234 65.8086 384.199 66.1953 384.199 66.6172C384.199 67.6719 384.375 68.5156 384.762 69.0781C385.078 69.5703 385.57 69.957 386.238 70.168C386.66 70.3086 387.293 70.4492 388.137 70.5195C387.82 70.8008 387.645 71.2227 387.574 71.7148C387.152 71.9258 386.766 71.9961 386.414 71.9258C385.781 71.8906 385.324 71.5742 385.008 70.9766C384.867 70.7305 384.656 70.5195 384.445 70.3438C384.27 70.2734 384.094 70.168 383.918 70.0977L383.672 70.0625C383.391 70.0625 383.25 70.1328 383.25 70.2031C383.25 70.2734 383.285 70.3789 383.426 70.4492L383.602 70.5898C383.742 70.6953 383.918 70.8359 384.094 71.0469C384.234 71.2227 384.34 71.3984 384.445 71.6094L384.586 71.8906C384.691 72.2422 384.902 72.5234 385.254 72.6992C385.535 72.875 385.852 72.9805 386.273 73.0156C386.555 73.0508 386.836 73.0508 387.152 72.9805L387.539 72.9453L387.574 75.0898C387.574 75.2305 387.504 75.3711 387.398 75.4414C387.293 75.5469 387.152 75.582 386.977 75.5117C385.184 74.9492 383.742 73.8945 382.652 72.3477C381.527 70.8008 381 69.0781 381 67.1094C381 65.5273 381.352 64.0859 382.125 62.75C382.863 61.4492 383.883 60.4297 385.219 59.6562C386.52 58.918 387.996 58.5312 389.613 58.5312ZM384.41 70.6602C384.445 70.625 384.516 70.625 384.586 70.6953C384.656 70.7656 384.656 70.8359 384.621 70.8711C384.551 70.9414 384.516 70.9062 384.445 70.8359C384.375 70.7656 384.34 70.7305 384.41 70.6602ZM384.023 70.3789C384.059 70.3438 384.129 70.3438 384.199 70.3789C384.27 70.4141 384.27 70.4492 384.27 70.5195C384.234 70.5898 384.164 70.5898 384.094 70.5195C384.023 70.4844 383.988 70.4492 384.023 70.3789ZM385.184 71.6094C385.184 71.6094 385.219 71.6094 385.289 71.6094C385.324 71.6094 385.359 71.6445 385.395 71.6797C385.43 71.7148 385.465 71.75 385.465 71.7852C385.465 71.8555 385.465 71.8906 385.465 71.8906C385.395 71.9609 385.289 71.9609 385.219 71.8555C385.148 71.8203 385.148 71.7852 385.148 71.7148C385.148 71.6797 385.148 71.6445 385.184 71.6094ZM384.762 71.1172C384.797 71.1172 384.832 71.1172 384.867 71.1172C384.902 71.1172 384.938 71.1523 384.973 71.1875C385.043 71.293 385.043 71.3633 384.973 71.3984C384.938 71.4336 384.902 71.4336 384.867 71.3984C384.832 71.3984 384.797 71.3633 384.762 71.3281C384.691 71.2227 384.691 71.1523 384.762 71.1172Z" fill="#8392AB"/>
<path d="M6.46094 6.60156C5.20573 6.60156 4.21354 7.02083 3.48438 7.85938C2.76042 8.69271 2.39844 9.83594 2.39844 11.2891C2.39844 12.7839 2.7474 13.9401 3.44531 14.7578C4.14844 15.5703 5.14844 15.9766 6.44531 15.9766C7.24219 15.9766 8.15104 15.8333 9.17188 15.5469V16.7109C8.38021 17.0078 7.40365 17.1562 6.24219 17.1562C4.5599 17.1562 3.26042 16.6458 2.34375 15.625C1.43229 14.6042 0.976562 13.1536 0.976562 11.2734C0.976562 10.0964 1.19531 9.0651 1.63281 8.17969C2.07552 7.29427 2.71094 6.61198 3.53906 6.13281C4.3724 5.65365 5.35156 5.41406 6.47656 5.41406C7.67448 5.41406 8.72135 5.63281 9.61719 6.07031L9.05469 7.21094C8.1901 6.80469 7.32552 6.60156 6.46094 6.60156ZM18.4168 12.7109C18.4168 14.1068 18.0653 15.1979 17.3621 15.9844C16.659 16.7656 15.6877 17.1562 14.4481 17.1562C13.6824 17.1562 13.0028 16.9766 12.409 16.6172C11.8153 16.2578 11.3569 15.7422 11.034 15.0703C10.7111 14.3984 10.5496 13.612 10.5496 12.7109C10.5496 11.3151 10.8986 10.2292 11.5965 9.45312C12.2944 8.67188 13.2632 8.28125 14.5028 8.28125C15.7007 8.28125 16.6512 8.67969 17.3543 9.47656C18.0627 10.2734 18.4168 11.3516 18.4168 12.7109ZM11.8934 12.7109C11.8934 13.8047 12.1121 14.638 12.5496 15.2109C12.9871 15.7839 13.6304 16.0703 14.4793 16.0703C15.3283 16.0703 15.9715 15.7865 16.409 15.2188C16.8517 14.6458 17.0731 13.8099 17.0731 12.7109C17.0731 11.6224 16.8517 10.7969 16.409 10.2344C15.9715 9.66667 15.3231 9.38281 14.4637 9.38281C13.6147 9.38281 12.9741 9.66146 12.5418 10.2188C12.1095 10.776 11.8934 11.6068 11.8934 12.7109ZM31.1696 17V11.4297C31.1696 10.7474 31.0237 10.237 30.7321 9.89844C30.4404 9.55469 29.9873 9.38281 29.3727 9.38281C28.5654 9.38281 27.9691 9.61458 27.5836 10.0781C27.1982 10.5417 27.0055 11.2552 27.0055 12.2188V17H25.7086V11.4297C25.7086 10.7474 25.5628 10.237 25.2711 9.89844C24.9795 9.55469 24.5237 9.38281 23.904 9.38281C23.0915 9.38281 22.4951 9.6276 22.1149 10.1172C21.7399 10.6016 21.5524 11.3984 21.5524 12.5078V17H20.2555V8.4375H21.3102L21.5211 9.60938H21.5836C21.8284 9.19271 22.1722 8.86719 22.6149 8.63281C23.0628 8.39844 23.5628 8.28125 24.1149 8.28125C25.4534 8.28125 26.3284 8.76562 26.7399 9.73438H26.8024C27.0576 9.28646 27.4274 8.93229 27.9118 8.67188C28.3961 8.41146 28.9482 8.28125 29.568 8.28125C30.5368 8.28125 31.2607 8.53125 31.7399 9.03125C32.2243 9.52604 32.4665 10.3203 32.4665 11.4141V17H31.1696ZM38.688 17.1562C38.1307 17.1562 37.6203 17.0547 37.1567 16.8516C36.6984 16.6432 36.313 16.3255 36.0005 15.8984H35.9067C35.9692 16.3984 36.0005 16.8724 36.0005 17.3203V20.8438H34.7036V8.4375H35.7583L35.938 9.60938H36.0005C36.3338 9.14062 36.7218 8.80208 37.1645 8.59375C37.6072 8.38542 38.115 8.28125 38.688 8.28125C39.8234 8.28125 40.6984 8.66927 41.313 9.44531C41.9328 10.2214 42.2427 11.3099 42.2427 12.7109C42.2427 14.1172 41.9275 15.2109 41.2973 15.9922C40.6723 16.7682 39.8025 17.1562 38.688 17.1562ZM38.5005 9.38281C37.6255 9.38281 36.9927 9.625 36.602 10.1094C36.2114 10.5938 36.0109 11.3646 36.0005 12.4219V12.7109C36.0005 13.9141 36.201 14.776 36.602 15.2969C37.0031 15.8125 37.6463 16.0703 38.5317 16.0703C39.2713 16.0703 39.8494 15.7708 40.2661 15.1719C40.688 14.5729 40.8989 13.7474 40.8989 12.6953C40.8989 11.6276 40.688 10.8099 40.2661 10.2422C39.8494 9.66927 39.2609 9.38281 38.5005 9.38281ZM49.3392 17L49.0813 15.7812H49.0188C48.5918 16.3177 48.1647 16.6823 47.7376 16.875C47.3157 17.0625 46.7871 17.1562 46.1517 17.1562C45.3027 17.1562 44.636 16.9375 44.1517 16.5C43.6725 16.0625 43.4329 15.4401 43.4329 14.6328C43.4329 12.9036 44.8157 11.9974 47.5813 11.9141L49.0345 11.8672V11.3359C49.0345 10.6641 48.8886 10.1693 48.597 9.85156C48.3105 9.52865 47.8496 9.36719 47.2142 9.36719C46.5006 9.36719 45.6933 9.58594 44.7923 10.0234L44.3938 9.03125C44.8157 8.80208 45.2767 8.6224 45.7767 8.49219C46.2819 8.36198 46.7871 8.29688 47.2923 8.29688C48.3131 8.29688 49.0683 8.52344 49.5579 8.97656C50.0527 9.42969 50.3001 10.1562 50.3001 11.1562V17H49.3392ZM46.4095 16.0859C47.2168 16.0859 47.8496 15.8646 48.3079 15.4219C48.7715 14.9792 49.0032 14.3594 49.0032 13.5625V12.7891L47.7063 12.8438C46.6751 12.8802 45.9303 13.0417 45.472 13.3281C45.0188 13.6094 44.7923 14.0495 44.7923 14.6484C44.7923 15.1172 44.9329 15.474 45.2142 15.7188C45.5006 15.9635 45.8991 16.0859 46.4095 16.0859ZM58.3966 17V11.4609C58.3966 10.763 58.2378 10.2422 57.92 9.89844C57.6023 9.55469 57.1049 9.38281 56.4279 9.38281C55.532 9.38281 54.8758 9.625 54.4591 10.1094C54.0424 10.5938 53.8341 11.3932 53.8341 12.5078V17H52.5372V8.4375H53.5919L53.8029 9.60938H53.8654C54.131 9.1875 54.5034 8.86198 54.9825 8.63281C55.4617 8.39844 55.9956 8.28125 56.5841 8.28125C57.6154 8.28125 58.3914 8.53125 58.9122 9.03125C59.4331 9.52604 59.6935 10.3203 59.6935 11.4141V17H58.3966ZM60.5634 8.4375H61.9541L63.8291 13.3203C64.2405 14.4349 64.4957 15.2396 64.5947 15.7344H64.6572C64.7249 15.4688 64.8655 15.0156 65.0791 14.375C65.2978 13.7292 66.0061 11.75 67.2041 8.4375H68.5947L64.915 18.1875C64.5504 19.151 64.1233 19.8333 63.6337 20.2344C63.1494 20.6406 62.553 20.8438 61.8447 20.8438C61.4488 20.8438 61.0582 20.7995 60.6728 20.7109V19.6719C60.9593 19.7344 61.2796 19.7656 61.6337 19.7656C62.5244 19.7656 63.1598 19.2656 63.54 18.2656L64.0166 17.0469L60.5634 8.4375Z" fill="#8392AB"/>
<path d="M129.75 17L128.328 13.3672H123.75L122.344 17H121L125.516 5.53125H126.633L131.125 17H129.75ZM127.914 12.1719L126.586 8.63281C126.414 8.1849 126.237 7.63542 126.055 6.98438C125.94 7.48438 125.776 8.03385 125.562 8.63281L124.219 12.1719H127.914ZM136.042 8.29688C137.167 8.29688 138.039 8.68229 138.659 9.45312C139.284 10.2188 139.597 11.3047 139.597 12.7109C139.597 14.1172 139.281 15.2109 138.651 15.9922C138.026 16.7682 137.156 17.1562 136.042 17.1562C135.485 17.1562 134.974 17.0547 134.511 16.8516C134.052 16.6432 133.667 16.3255 133.354 15.8984H133.261L132.987 17H132.057V4.84375H133.354V7.79688C133.354 8.45833 133.333 9.05208 133.292 9.57812H133.354C133.958 8.72396 134.854 8.29688 136.042 8.29688ZM135.854 9.38281C134.969 9.38281 134.331 9.63802 133.94 10.1484C133.55 10.6536 133.354 11.5078 133.354 12.7109C133.354 13.9141 133.555 14.776 133.956 15.2969C134.357 15.8125 135 16.0703 135.886 16.0703C136.682 16.0703 137.276 15.7812 137.667 15.2031C138.057 14.6198 138.253 13.7839 138.253 12.6953C138.253 11.5807 138.057 10.75 137.667 10.2031C137.276 9.65625 136.672 9.38281 135.854 9.38281ZM148.818 12.7109C148.818 14.1068 148.466 15.1979 147.763 15.9844C147.06 16.7656 146.089 17.1562 144.849 17.1562C144.084 17.1562 143.404 16.9766 142.81 16.6172C142.216 16.2578 141.758 15.7422 141.435 15.0703C141.112 14.3984 140.951 13.612 140.951 12.7109C140.951 11.3151 141.3 10.2292 141.998 9.45312C142.696 8.67188 143.664 8.28125 144.904 8.28125C146.102 8.28125 147.052 8.67969 147.756 9.47656C148.464 10.2734 148.818 11.3516 148.818 12.7109ZM142.295 12.7109C142.295 13.8047 142.513 14.638 142.951 15.2109C143.388 15.7839 144.032 16.0703 144.881 16.0703C145.729 16.0703 146.373 15.7865 146.81 15.2188C147.253 14.6458 147.474 13.8099 147.474 12.7109C147.474 11.6224 147.253 10.7969 146.81 10.2344C146.373 9.66667 145.724 9.38281 144.865 9.38281C144.016 9.38281 143.375 9.66146 142.943 10.2188C142.511 10.776 142.295 11.6068 142.295 12.7109ZM151.875 8.4375V13.9922C151.875 14.6901 152.034 15.2109 152.352 15.5547C152.67 15.8984 153.167 16.0703 153.844 16.0703C154.74 16.0703 155.394 15.8255 155.805 15.3359C156.222 14.8464 156.43 14.0469 156.43 12.9375V8.4375H157.727V17H156.657L156.469 15.8516H156.399C156.133 16.2734 155.763 16.5964 155.29 16.8203C154.821 17.0443 154.284 17.1562 153.68 17.1562C152.638 17.1562 151.857 16.9089 151.336 16.4141C150.821 15.9193 150.563 15.1276 150.563 14.0391V8.4375H151.875ZM162.808 16.0859C163.037 16.0859 163.258 16.0703 163.472 16.0391C163.686 16.0026 163.855 15.9661 163.98 15.9297V16.9219C163.839 16.9896 163.631 17.0443 163.355 17.0859C163.084 17.1328 162.839 17.1562 162.62 17.1562C160.964 17.1562 160.136 16.2839 160.136 14.5391V9.44531H158.909V8.82031L160.136 8.28125L160.683 6.45312H161.433V8.4375H163.917V9.44531H161.433V14.4844C161.433 15 161.555 15.3958 161.8 15.6719C162.045 15.9479 162.381 16.0859 162.808 16.0859ZM177.79 5.57812V12.9688C177.79 14.2708 177.397 15.2943 176.61 16.0391C175.824 16.7839 174.743 17.1562 173.368 17.1562C171.993 17.1562 170.928 16.7812 170.173 16.0312C169.423 15.2812 169.048 14.25 169.048 12.9375V5.57812H170.376V13.0312C170.376 13.9844 170.636 14.7161 171.157 15.2266C171.678 15.737 172.444 15.9922 173.454 15.9922C174.418 15.9922 175.16 15.737 175.681 15.2266C176.201 14.7109 176.462 13.974 176.462 13.0156V5.57812H177.79ZM185.707 14.6641C185.707 15.4609 185.41 16.0755 184.816 16.5078C184.222 16.9401 183.389 17.1562 182.316 17.1562C181.181 17.1562 180.295 16.9766 179.66 16.6172V15.4141C180.071 15.6224 180.512 15.7865 180.98 15.9062C181.454 16.026 181.91 16.0859 182.347 16.0859C183.025 16.0859 183.545 15.9792 183.91 15.7656C184.275 15.5469 184.457 15.2161 184.457 14.7734C184.457 14.4401 184.311 14.1562 184.019 13.9219C183.733 13.6823 183.17 13.401 182.332 13.0781C181.535 12.7812 180.967 12.5234 180.629 12.3047C180.295 12.0807 180.045 11.8281 179.879 11.5469C179.717 11.2656 179.637 10.9297 179.637 10.5391C179.637 9.84115 179.92 9.29167 180.488 8.89062C181.056 8.48438 181.834 8.28125 182.824 8.28125C183.746 8.28125 184.647 8.46875 185.527 8.84375L185.066 9.89844C184.207 9.54427 183.428 9.36719 182.73 9.36719C182.116 9.36719 181.652 9.46354 181.34 9.65625C181.027 9.84896 180.871 10.1146 180.871 10.4531C180.871 10.6823 180.928 10.8776 181.043 11.0391C181.163 11.2005 181.353 11.3542 181.613 11.5C181.873 11.6458 182.373 11.8568 183.113 12.1328C184.129 12.5026 184.814 12.875 185.168 13.25C185.527 13.625 185.707 14.0964 185.707 14.6641Z" fill="#8392AB"/>
<path d="M244.086 17H242.758V6.75781H239.141V5.57812H247.703V6.75781H244.086V17ZM252.409 17.1562C251.143 17.1562 250.143 16.7708 249.409 16C248.68 15.2292 248.315 14.1589 248.315 12.7891C248.315 11.4089 248.654 10.3125 249.331 9.5C250.013 8.6875 250.927 8.28125 252.073 8.28125C253.146 8.28125 253.995 8.63542 254.62 9.34375C255.245 10.0469 255.557 10.9766 255.557 12.1328V12.9531H249.659C249.685 13.9583 249.938 14.7214 250.417 15.2422C250.901 15.763 251.581 16.0234 252.456 16.0234C253.378 16.0234 254.289 15.8307 255.19 15.4453V16.6016C254.732 16.7995 254.297 16.9401 253.886 17.0234C253.479 17.112 252.987 17.1562 252.409 17.1562ZM252.057 9.36719C251.37 9.36719 250.82 9.59115 250.409 10.0391C250.003 10.487 249.763 11.1068 249.69 11.8984H254.167C254.167 11.0807 253.985 10.4557 253.62 10.0234C253.255 9.58594 252.735 9.36719 252.057 9.36719ZM262.599 17L262.341 15.7812H262.279C261.852 16.3177 261.425 16.6823 260.998 16.875C260.576 17.0625 260.047 17.1562 259.412 17.1562C258.563 17.1562 257.896 16.9375 257.412 16.5C256.933 16.0625 256.693 15.4401 256.693 14.6328C256.693 12.9036 258.076 11.9974 260.841 11.9141L262.295 11.8672V11.3359C262.295 10.6641 262.149 10.1693 261.857 9.85156C261.571 9.52865 261.11 9.36719 260.474 9.36719C259.761 9.36719 258.953 9.58594 258.052 10.0234L257.654 9.03125C258.076 8.80208 258.537 8.6224 259.037 8.49219C259.542 8.36198 260.047 8.29688 260.552 8.29688C261.573 8.29688 262.328 8.52344 262.818 8.97656C263.313 9.42969 263.56 10.1562 263.56 11.1562V17H262.599ZM259.67 16.0859C260.477 16.0859 261.11 15.8646 261.568 15.4219C262.032 14.9792 262.263 14.3594 262.263 13.5625V12.7891L260.966 12.8438C259.935 12.8802 259.19 13.0417 258.732 13.3281C258.279 13.6094 258.052 14.0495 258.052 14.6484C258.052 15.1172 258.193 15.474 258.474 15.7188C258.761 15.9635 259.159 16.0859 259.67 16.0859ZM276.711 17V11.4297C276.711 10.7474 276.566 10.237 276.274 9.89844C275.982 9.55469 275.529 9.38281 274.915 9.38281C274.107 9.38281 273.511 9.61458 273.125 10.0781C272.74 10.5417 272.547 11.2552 272.547 12.2188V17H271.25V11.4297C271.25 10.7474 271.105 10.237 270.813 9.89844C270.521 9.55469 270.066 9.38281 269.446 9.38281C268.633 9.38281 268.037 9.6276 267.657 10.1172C267.282 10.6016 267.094 11.3984 267.094 12.5078V17H265.797V8.4375H266.852L267.063 9.60938H267.125C267.37 9.19271 267.714 8.86719 268.157 8.63281C268.605 8.39844 269.105 8.28125 269.657 8.28125C270.995 8.28125 271.87 8.76562 272.282 9.73438H272.344C272.599 9.28646 272.969 8.93229 273.454 8.67188C273.938 8.41146 274.49 8.28125 275.11 8.28125C276.079 8.28125 276.803 8.53125 277.282 9.03125C277.766 9.52604 278.008 10.3203 278.008 11.4141V17H276.711Z" fill="#8392AB"/>
<path d="M339.812 8.90625C339.812 10.0625 339.417 10.9531 338.625 11.5781C337.839 12.1979 336.711 12.5078 335.242 12.5078H333.898V17H332.57V5.57812H335.531C338.385 5.57812 339.812 6.6875 339.812 8.90625ZM333.898 11.3672H335.094C336.271 11.3672 337.122 11.1771 337.648 10.7969C338.174 10.4167 338.438 9.80729 338.438 8.96875C338.438 8.21354 338.19 7.65104 337.695 7.28125C337.201 6.91146 336.43 6.72656 335.383 6.72656H333.898V11.3672ZM345.479 8.28125C345.86 8.28125 346.201 8.3125 346.503 8.375L346.323 9.57812C345.969 9.5 345.656 9.46094 345.386 9.46094C344.693 9.46094 344.099 9.74219 343.604 10.3047C343.115 10.8672 342.87 11.5677 342.87 12.4062V17H341.573V8.4375H342.643L342.792 10.0234H342.854C343.172 9.46615 343.555 9.03646 344.003 8.73438C344.451 8.43229 344.943 8.28125 345.479 8.28125ZM355.052 12.7109C355.052 14.1068 354.701 15.1979 353.998 15.9844C353.295 16.7656 352.323 17.1562 351.084 17.1562C350.318 17.1562 349.638 16.9766 349.045 16.6172C348.451 16.2578 347.992 15.7422 347.67 15.0703C347.347 14.3984 347.185 13.612 347.185 12.7109C347.185 11.3151 347.534 10.2292 348.232 9.45312C348.93 8.67188 349.899 8.28125 351.138 8.28125C352.336 8.28125 353.287 8.67969 353.99 9.47656C354.698 10.2734 355.052 11.3516 355.052 12.7109ZM348.529 12.7109C348.529 13.8047 348.748 14.638 349.185 15.2109C349.623 15.7839 350.266 16.0703 351.115 16.0703C351.964 16.0703 352.607 15.7865 353.045 15.2188C353.487 14.6458 353.709 13.8099 353.709 12.7109C353.709 11.6224 353.487 10.7969 353.045 10.2344C352.607 9.66667 351.959 9.38281 351.099 9.38281C350.25 9.38281 349.61 9.66146 349.177 10.2188C348.745 10.776 348.529 11.6068 348.529 12.7109ZM362.719 15.8516H362.649C362.05 16.7214 361.154 17.1562 359.961 17.1562C358.842 17.1562 357.969 16.7734 357.344 16.0078C356.724 15.2422 356.415 14.1536 356.415 12.7422C356.415 11.3307 356.727 10.2344 357.352 9.45312C357.977 8.67188 358.847 8.28125 359.961 8.28125C361.123 8.28125 362.013 8.70312 362.633 9.54688H362.735L362.68 8.92969L362.649 8.32812V4.84375H363.946V17H362.891L362.719 15.8516ZM360.125 16.0703C361.011 16.0703 361.652 15.8307 362.047 15.3516C362.448 14.8672 362.649 14.0885 362.649 13.0156V12.7422C362.649 11.5286 362.446 10.6641 362.04 10.1484C361.638 9.6276 360.995 9.36719 360.11 9.36719C359.349 9.36719 358.766 9.66406 358.36 10.2578C357.959 10.8464 357.758 11.6797 357.758 12.7578C357.758 13.8516 357.959 14.6771 358.36 15.2344C358.761 15.7917 359.349 16.0703 360.125 16.0703ZM367.48 8.4375V13.9922C367.48 14.6901 367.639 15.2109 367.956 15.5547C368.274 15.8984 368.771 16.0703 369.449 16.0703C370.344 16.0703 370.998 15.8255 371.409 15.3359C371.826 14.8464 372.034 14.0469 372.034 12.9375V8.4375H373.331V17H372.261L372.074 15.8516H372.003C371.738 16.2734 371.368 16.5964 370.894 16.8203C370.425 17.0443 369.889 17.1562 369.284 17.1562C368.243 17.1562 367.462 16.9089 366.941 16.4141C366.425 15.9193 366.167 15.1276 366.167 14.0391V8.4375H367.48ZM379.068 17.1562C377.829 17.1562 376.868 16.776 376.186 16.0156C375.509 15.25 375.17 14.1693 375.17 12.7734C375.17 11.3411 375.514 10.2344 376.201 9.45312C376.894 8.67188 377.878 8.28125 379.154 8.28125C379.566 8.28125 379.977 8.32552 380.389 8.41406C380.8 8.5026 381.123 8.60677 381.358 8.72656L380.959 9.82812C380.673 9.71354 380.36 9.61979 380.022 9.54688C379.683 9.46875 379.384 9.42969 379.123 9.42969C377.384 9.42969 376.514 10.5391 376.514 12.7578C376.514 13.8099 376.725 14.6172 377.147 15.1797C377.574 15.7422 378.204 16.0234 379.037 16.0234C379.751 16.0234 380.483 15.8698 381.233 15.5625V16.7109C380.66 17.0078 379.938 17.1562 379.068 17.1562ZM385.595 16.0859C385.824 16.0859 386.045 16.0703 386.259 16.0391C386.472 16.0026 386.642 15.9661 386.767 15.9297V16.9219C386.626 16.9896 386.418 17.0443 386.142 17.0859C385.871 17.1328 385.626 17.1562 385.407 17.1562C383.751 17.1562 382.923 16.2839 382.923 14.5391V9.44531H381.696V8.82031L382.923 8.28125L383.47 6.45312H384.22V8.4375H386.704V9.44531H384.22V14.4844C384.22 15 384.342 15.3958 384.587 15.6719C384.832 15.9479 385.168 16.0859 385.595 16.0859ZM393.566 14.6641C393.566 15.4609 393.269 16.0755 392.676 16.5078C392.082 16.9401 391.248 17.1562 390.176 17.1562C389.04 17.1562 388.155 16.9766 387.519 16.6172V15.4141C387.931 15.6224 388.371 15.7865 388.84 15.9062C389.314 16.026 389.769 16.0859 390.207 16.0859C390.884 16.0859 391.405 15.9792 391.769 15.7656C392.134 15.5469 392.316 15.2161 392.316 14.7734C392.316 14.4401 392.17 14.1562 391.879 13.9219C391.592 13.6823 391.03 13.401 390.191 13.0781C389.394 12.7812 388.827 12.5234 388.488 12.3047C388.155 12.0807 387.905 11.8281 387.738 11.5469C387.577 11.2656 387.496 10.9297 387.496 10.5391C387.496 9.84115 387.78 9.29167 388.347 8.89062C388.915 8.48438 389.694 8.28125 390.683 8.28125C391.605 8.28125 392.506 8.46875 393.387 8.84375L392.926 9.89844C392.066 9.54427 391.288 9.36719 390.59 9.36719C389.975 9.36719 389.512 9.46354 389.199 9.65625C388.887 9.84896 388.73 10.1146 388.73 10.4531C388.73 10.6823 388.788 10.8776 388.902 11.0391C389.022 11.2005 389.212 11.3542 389.472 11.5C389.733 11.6458 390.233 11.8568 390.972 12.1328C391.988 12.5026 392.673 12.875 393.027 13.25C393.387 13.625 393.566 14.0964 393.566 14.6641Z" fill="#8392AB"/>
<path d="M448.57 5.57812H451.797C453.312 5.57812 454.409 5.80469 455.086 6.25781C455.763 6.71094 456.102 7.42708 456.102 8.40625C456.102 9.08333 455.911 9.64323 455.531 10.0859C455.156 10.5234 454.607 10.8073 453.883 10.9375V11.0156C455.617 11.3125 456.484 12.224 456.484 13.75C456.484 14.7708 456.138 15.5677 455.445 16.1406C454.758 16.7135 453.794 17 452.555 17H448.57V5.57812ZM449.898 10.4688H452.086C453.023 10.4688 453.698 10.3229 454.109 10.0312C454.521 9.73438 454.727 9.23698 454.727 8.53906C454.727 7.89844 454.497 7.4375 454.039 7.15625C453.581 6.86979 452.852 6.72656 451.852 6.72656H449.898V10.4688ZM449.898 11.5938V15.8672H452.281C453.203 15.8672 453.896 15.6901 454.359 15.3359C454.828 14.9766 455.062 14.4167 455.062 13.6562C455.062 12.9479 454.823 12.4271 454.344 12.0938C453.87 11.7604 453.146 11.5938 452.172 11.5938H449.898ZM459.604 17H458.307V4.84375H459.604V17ZM469.302 12.7109C469.302 14.1068 468.951 15.1979 468.248 15.9844C467.545 16.7656 466.573 17.1562 465.334 17.1562C464.568 17.1562 463.888 16.9766 463.295 16.6172C462.701 16.2578 462.242 15.7422 461.92 15.0703C461.597 14.3984 461.435 13.612 461.435 12.7109C461.435 11.3151 461.784 10.2292 462.482 9.45312C463.18 8.67188 464.149 8.28125 465.388 8.28125C466.586 8.28125 467.537 8.67969 468.24 9.47656C468.948 10.2734 469.302 11.3516 469.302 12.7109ZM462.779 12.7109C462.779 13.8047 462.998 14.638 463.435 15.2109C463.873 15.7839 464.516 16.0703 465.365 16.0703C466.214 16.0703 466.857 15.7865 467.295 15.2188C467.737 14.6458 467.959 13.8099 467.959 12.7109C467.959 11.6224 467.737 10.7969 467.295 10.2344C466.857 9.66667 466.209 9.38281 465.349 9.38281C464.5 9.38281 463.86 9.66146 463.427 10.2188C462.995 10.776 462.779 11.6068 462.779 12.7109ZM478.149 8.4375V9.25781L476.563 9.44531C476.709 9.6276 476.839 9.86719 476.954 10.1641C477.068 10.4557 477.125 10.7865 477.125 11.1562C477.125 11.9948 476.839 12.6641 476.266 13.1641C475.693 13.6641 474.907 13.9141 473.907 13.9141C473.652 13.9141 473.412 13.8932 473.188 13.8516C472.636 14.1432 472.36 14.5104 472.36 14.9531C472.36 15.1875 472.456 15.362 472.649 15.4766C472.842 15.5859 473.172 15.6406 473.641 15.6406H475.157C476.084 15.6406 476.795 15.8359 477.29 16.2266C477.79 16.6172 478.04 17.1849 478.04 17.9297C478.04 18.8776 477.659 19.599 476.899 20.0938C476.138 20.5938 475.029 20.8438 473.571 20.8438C472.451 20.8438 471.586 20.6354 470.977 20.2188C470.373 19.8021 470.071 19.2135 470.071 18.4531C470.071 17.9323 470.237 17.4818 470.571 17.1016C470.904 16.7214 471.373 16.4635 471.977 16.3281C471.758 16.2292 471.573 16.0755 471.422 15.8672C471.277 15.6589 471.204 15.4167 471.204 15.1406C471.204 14.8281 471.287 14.5547 471.454 14.3203C471.62 14.0859 471.883 13.8594 472.243 13.6406C471.8 13.4583 471.438 13.1484 471.157 12.7109C470.881 12.2734 470.743 11.7734 470.743 11.2109C470.743 10.2734 471.024 9.55208 471.586 9.04688C472.149 8.53646 472.946 8.28125 473.977 8.28125C474.425 8.28125 474.829 8.33333 475.188 8.4375H478.149ZM471.321 18.4375C471.321 18.901 471.516 19.2526 471.907 19.4922C472.297 19.7318 472.857 19.8516 473.586 19.8516C474.675 19.8516 475.48 19.6875 476 19.3594C476.527 19.0365 476.79 18.5964 476.79 18.0391C476.79 17.5755 476.646 17.2526 476.36 17.0703C476.073 16.8932 475.534 16.8047 474.743 16.8047H473.188C472.599 16.8047 472.141 16.9453 471.813 17.2266C471.485 17.5078 471.321 17.9115 471.321 18.4375ZM472.024 11.1797C472.024 11.7786 472.193 12.2318 472.532 12.5391C472.87 12.8464 473.342 13 473.946 13C475.211 13 475.844 12.3854 475.844 11.1562C475.844 9.86979 475.204 9.22656 473.922 9.22656C473.313 9.22656 472.844 9.39062 472.516 9.71875C472.188 10.0469 472.024 10.5339 472.024 11.1797Z" fill="#8392AB"/>
<path d="M539.812 8.90625C539.812 10.0625 539.417 10.9531 538.625 11.5781C537.839 12.1979 536.711 12.5078 535.242 12.5078H533.898V17H532.57V5.57812H535.531C538.385 5.57812 539.812 6.6875 539.812 8.90625ZM533.898 11.3672H535.094C536.271 11.3672 537.122 11.1771 537.648 10.7969C538.174 10.4167 538.438 9.80729 538.438 8.96875C538.438 8.21354 538.19 7.65104 537.695 7.28125C537.201 6.91146 536.43 6.72656 535.383 6.72656H533.898V11.3672ZM545.479 8.28125C545.86 8.28125 546.201 8.3125 546.503 8.375L546.323 9.57812C545.969 9.5 545.656 9.46094 545.386 9.46094C544.693 9.46094 544.099 9.74219 543.604 10.3047C543.115 10.8672 542.87 11.5677 542.87 12.4062V17H541.573V8.4375H542.643L542.792 10.0234H542.854C543.172 9.46615 543.555 9.03646 544.003 8.73438C544.451 8.43229 544.943 8.28125 545.479 8.28125ZM548.959 17H547.662V8.4375H548.959V17ZM547.552 6.11719C547.552 5.82031 547.625 5.60417 547.771 5.46875C547.917 5.32812 548.099 5.25781 548.318 5.25781C548.526 5.25781 548.706 5.32812 548.857 5.46875C549.008 5.60938 549.084 5.82552 549.084 6.11719C549.084 6.40885 549.008 6.6276 548.857 6.77344C548.706 6.91406 548.526 6.98438 548.318 6.98438C548.099 6.98438 547.917 6.91406 547.771 6.77344C547.625 6.6276 547.552 6.40885 547.552 6.11719ZM554.688 17.1562C553.448 17.1562 552.487 16.776 551.805 16.0156C551.128 15.25 550.79 14.1693 550.79 12.7734C550.79 11.3411 551.133 10.2344 551.821 9.45312C552.513 8.67188 553.498 8.28125 554.774 8.28125C555.185 8.28125 555.597 8.32552 556.008 8.41406C556.42 8.5026 556.743 8.60677 556.977 8.72656L556.579 9.82812C556.292 9.71354 555.98 9.61979 555.641 9.54688C555.303 9.46875 555.003 9.42969 554.743 9.42969C553.003 9.42969 552.133 10.5391 552.133 12.7578C552.133 13.8099 552.344 14.6172 552.766 15.1797C553.193 15.7422 553.823 16.0234 554.657 16.0234C555.37 16.0234 556.102 15.8698 556.852 15.5625V16.7109C556.279 17.0078 555.558 17.1562 554.688 17.1562ZM559.745 17H558.449V8.4375H559.745V17ZM558.339 6.11719C558.339 5.82031 558.412 5.60417 558.558 5.46875C558.704 5.32812 558.886 5.25781 559.105 5.25781C559.313 5.25781 559.493 5.32812 559.644 5.46875C559.795 5.60938 559.87 5.82552 559.87 6.11719C559.87 6.40885 559.795 6.6276 559.644 6.77344C559.493 6.91406 559.313 6.98438 559.105 6.98438C558.886 6.98438 558.704 6.91406 558.558 6.77344C558.412 6.6276 558.339 6.40885 558.339 6.11719ZM567.912 17V11.4609C567.912 10.763 567.753 10.2422 567.436 9.89844C567.118 9.55469 566.621 9.38281 565.943 9.38281C565.048 9.38281 564.391 9.625 563.975 10.1094C563.558 10.5938 563.35 11.3932 563.35 12.5078V17H562.053V8.4375H563.108L563.318 9.60938H563.381C563.647 9.1875 564.019 8.86198 564.498 8.63281C564.977 8.39844 565.511 8.28125 566.1 8.28125C567.131 8.28125 567.907 8.53125 568.428 9.03125C568.949 9.52604 569.209 10.3203 569.209 11.4141V17H567.912ZM578.446 8.4375V9.25781L576.86 9.44531C577.006 9.6276 577.136 9.86719 577.251 10.1641C577.366 10.4557 577.423 10.7865 577.423 11.1562C577.423 11.9948 577.136 12.6641 576.563 13.1641C575.991 13.6641 575.204 13.9141 574.204 13.9141C573.949 13.9141 573.709 13.8932 573.485 13.8516C572.933 14.1432 572.657 14.5104 572.657 14.9531C572.657 15.1875 572.754 15.362 572.946 15.4766C573.139 15.5859 573.47 15.6406 573.938 15.6406H575.454C576.381 15.6406 577.092 15.8359 577.587 16.2266C578.087 16.6172 578.337 17.1849 578.337 17.9297C578.337 18.8776 577.957 19.599 577.196 20.0938C576.436 20.5938 575.326 20.8438 573.868 20.8438C572.748 20.8438 571.884 20.6354 571.274 20.2188C570.67 19.8021 570.368 19.2135 570.368 18.4531C570.368 17.9323 570.535 17.4818 570.868 17.1016C571.201 16.7214 571.67 16.4635 572.274 16.3281C572.056 16.2292 571.871 16.0755 571.72 15.8672C571.574 15.6589 571.501 15.4167 571.501 15.1406C571.501 14.8281 571.584 14.5547 571.751 14.3203C571.918 14.0859 572.181 13.8594 572.54 13.6406C572.097 13.4583 571.735 13.1484 571.454 12.7109C571.178 12.2734 571.04 11.7734 571.04 11.2109C571.04 10.2734 571.321 9.55208 571.884 9.04688C572.446 8.53646 573.243 8.28125 574.274 8.28125C574.722 8.28125 575.126 8.33333 575.485 8.4375H578.446ZM571.618 18.4375C571.618 18.901 571.813 19.2526 572.204 19.4922C572.595 19.7318 573.155 19.8516 573.884 19.8516C574.972 19.8516 575.777 19.6875 576.298 19.3594C576.824 19.0365 577.087 18.5964 577.087 18.0391C577.087 17.5755 576.944 17.2526 576.657 17.0703C576.371 16.8932 575.832 16.8047 575.04 16.8047H573.485C572.897 16.8047 572.438 16.9453 572.11 17.2266C571.782 17.5078 571.618 17.9115 571.618 18.4375ZM572.321 11.1797C572.321 11.7786 572.491 12.2318 572.829 12.5391C573.168 12.8464 573.639 13 574.243 13C575.509 13 576.142 12.3854 576.142 11.1562C576.142 9.86979 575.501 9.22656 574.22 9.22656C573.61 9.22656 573.142 9.39062 572.813 9.71875C572.485 10.0469 572.321 10.5339 572.321 11.1797Z" fill="#8392AB"/>
</svg>
